<svg width="32" height="32" viewBox="0 0 32 32" fill="none" xmlns="http://www.w3.org/2000/svg">
<g id="SlidersHorizontal">
<path id="Vector" d="M18.5 21.5H5" stroke="currentColor" stroke-width="2" stroke-linecap="round" stroke-linejoin="round"/>
<path id="Vector_2" d="M27 21.5H23.5" stroke="currentColor" stroke-width="2" stroke-linecap="round" stroke-linejoin="round"/>
<path id="Vector_3" d="M21 24C22.3807 24 23.5 22.8807 23.5 21.5C23.5 20.1193 22.3807 19 21 19C19.6193 19 18.5 20.1193 18.5 21.5C18.5 22.8807 19.6193 24 21 24Z" stroke="currentColor" stroke-width="2" stroke-linecap="round" stroke-linejoin="round"/>
<path id="Vector_4" d="M10.5 10.5H5" stroke="currentColor" stroke-width="2" stroke-linecap="round" stroke-linejoin="round"/>
<path id="Vector_5" d="M27 10.5H15.5" stroke="currentColor" stroke-width="2" stroke-linecap="round" stroke-linejoin="round"/>
<path id="Vector_6" d="M13 13C14.3807 13 15.5 11.8807 15.5 10.5C15.5 9.11929 14.3807 8 13 8C11.6193 8 10.5 9.11929 10.5 10.5C10.5 11.8807 11.6193 13 13 13Z" stroke="currentColor" stroke-width="2" stroke-linecap="round" stroke-linejoin="round"/>
</g>
</svg>
