<svg width="192" height="24" viewBox="0 0 192 24" fill="none" xmlns="http://www.w3.org/2000/svg">
<path d="M191.5 4.87422V8.04596C190.75 7.82119 189.65 7.89611 188.85 8.27073C187.65 8.82016 187 9.91903 187 11.4674V18.3728H183.576V4.87422H186.576V7.04699C186.913 6.42263 187.413 5.88568 188.025 5.52355C189 4.92417 190.275 4.72438 191.5 4.87422Z" fill="#101111"/>
<path d="M171.64 12.5788C171.89 14.5018 172.965 15.5757 174.802 15.5757C176.127 15.5757 177.102 14.9764 177.602 13.8775L181.001 14.8515C179.976 17.3239 177.602 18.76 174.989 18.76C170.828 18.76 167.953 15.8629 167.953 11.8046C167.953 7.37168 170.778 4.49963 174.79 4.49963C179.051 4.49963 181.526 7.67137 181.114 12.5788H171.64ZM171.727 10.0564H177.689C177.452 8.23329 176.602 7.45909 174.965 7.45909C173.127 7.4466 172.077 8.33319 171.727 10.0564Z" fill="#101111"/>
<path d="M164.503 4.86182L164.441 4.8743L160.916 14.0648L157.354 4.86182H153.83L159.304 18.298L158.792 19.6216C158.517 20.3459 157.817 20.8329 157.042 20.8329H155.68V23.9547H157.042C159.117 23.9422 160.966 22.6685 161.716 20.7455L167.878 4.86182H164.503Z" fill="#101111"/>
<path d="M153.192 10.1313V18.3853H150.218V16.737C149.018 18.1606 147.693 18.76 145.606 18.76C142.706 18.76 141.094 16.9119 141.094 14.6517C141.094 12.7786 141.869 11.3801 144.044 10.5684C145.343 10.0939 147.293 9.80667 149.83 9.43206C149.693 8.17086 148.955 7.59645 147.356 7.59645C146.356 7.59645 145.081 8.02101 144.656 9.24475L141.581 8.27075C142.256 6.04804 144.106 4.49963 147.368 4.49963C149.743 4.49963 151.705 5.14897 152.655 6.94711C153.167 7.94609 153.192 8.9076 153.192 10.1313ZM149.818 12.1917C147.543 12.5788 146.618 12.7661 145.843 13.0533C144.844 13.4529 144.444 13.9274 144.444 14.6017C144.444 15.5258 145.168 16.0752 146.343 16.0752C148.218 16.0752 149.193 14.8515 149.468 14.2771C149.73 13.7027 149.805 12.8411 149.818 12.1917Z" fill="#101111"/>
<path d="M135.07 18.3854V0.00427246H138.469V18.3854H135.07Z" fill="#101111"/>
<path d="M118.247 12.5788C118.497 14.5018 119.572 15.5757 121.409 15.5757C122.734 15.5757 123.709 14.9764 124.209 13.8775L127.608 14.8515C126.583 17.3239 124.209 18.76 121.596 18.76C117.434 18.76 114.56 15.8629 114.56 11.8046C114.56 7.37168 117.384 4.49963 121.396 4.49963C125.658 4.49963 128.133 7.67137 127.721 12.5788H118.247ZM118.334 10.0564H124.296C124.059 8.23329 123.209 7.45909 121.571 7.45909C119.747 7.4466 118.697 8.33319 118.334 10.0564Z" fill="#101111"/>
<path d="M99.8992 11.6298C99.8992 7.52152 102.524 4.49963 106.661 4.49963C109.835 4.49963 112.148 6.22286 112.748 9.00749L109.348 9.90657C108.948 8.50801 107.873 7.68386 106.623 7.68386C104.474 7.68386 103.524 9.38211 103.524 11.6423C103.524 13.9899 104.574 15.5882 106.623 15.5882C108.148 15.5882 108.873 14.864 109.273 13.5653L112.748 14.2896C111.973 17.1616 109.748 18.7724 106.611 18.7724C102.411 18.76 99.8992 15.6756 99.8992 11.6298Z" fill="#101111"/>
<path d="M98.8993 4.87422V8.04596C98.1494 7.82119 97.0495 7.89611 96.2496 8.27073C95.0498 8.82016 94.3999 9.91903 94.3999 11.4674V18.3728H90.9753V4.87422H93.975V7.04699C94.3124 6.42263 94.8123 5.88568 95.4248 5.52355C96.3996 4.92417 97.6745 4.72438 98.8993 4.87422Z" fill="#101111"/>
<path d="M79.0393 12.5788C79.2893 14.5018 80.3641 15.5757 82.2014 15.5757C83.5262 15.5757 84.5011 14.9764 85.0011 13.8775L88.4006 14.8515C87.3757 17.3239 85.0011 18.76 82.3889 18.76C78.2269 18.76 75.3523 15.8629 75.3523 11.8046C75.3523 7.37168 78.1769 4.49963 82.1889 4.49963C86.4509 4.49963 88.9256 7.67137 88.5131 12.5788H79.0393ZM79.1268 10.0564H85.0885C84.8511 8.23329 84.0012 7.45909 82.3639 7.45909C80.5266 7.4466 79.4768 8.33319 79.1268 10.0564Z" fill="#101111"/>
<path d="M73.49 9.50696V18.3853H70.0904V10.406C70.0904 8.63285 69.1906 7.58394 67.7157 7.58394C66.2909 7.58394 65.366 8.65783 65.366 10.2062V18.3853H61.9415V10.406C61.9415 8.63285 61.0416 7.58394 59.5668 7.58394C58.142 7.58394 57.2171 8.65783 57.2171 10.2062V18.3853H53.78V4.87423H56.7796V6.34771C57.6795 5.23635 59.1043 4.54956 60.7291 4.54956C62.6664 4.54956 63.9537 5.3862 64.6661 6.6474C65.541 5.34874 67.0533 4.54956 68.7906 4.54956C71.8902 4.54956 73.49 6.5475 73.49 9.50696Z" fill="#101111"/>
<path d="M50.9306 9.50696V18.3853H47.5311V10.406C47.5311 8.63285 46.6312 7.58394 45.1564 7.58394C43.7316 7.58394 42.8067 8.65783 42.8067 10.2062V18.3853H39.3946V10.406C39.3946 8.63285 38.4947 7.58394 37.0199 7.58394C35.5951 7.58394 34.6702 8.65783 34.6702 10.2062V18.3853H31.2332V4.87423H34.2453V6.34771C35.1452 5.23635 36.57 4.54956 38.1948 4.54956C40.132 4.54956 41.4194 5.3862 42.1193 6.6474C42.9942 5.34874 44.5065 4.54956 46.2562 4.54956C49.3183 4.54956 50.9306 6.5475 50.9306 9.50696Z" fill="#101111"/>
<path d="M15.1726 11.6298C15.1726 7.39665 17.9973 4.49963 22.0092 4.49963C26.0962 4.49963 28.8709 7.4466 28.8709 11.6298C28.8709 15.838 26.0712 18.76 22.0092 18.76C17.9223 18.76 15.1726 15.8005 15.1726 11.6298ZM25.2588 11.6298C25.2588 9.23226 24.159 7.67137 22.0092 7.67137C19.7845 7.67137 18.7847 9.26972 18.7847 11.6298C18.7847 14.0523 19.8845 15.5757 22.0092 15.5757C24.184 15.5757 25.2588 13.9524 25.2588 11.6298Z" fill="#101111"/>
<path d="M0.487061 11.6298C0.487061 7.52152 3.11173 4.49963 7.2487 4.49963C10.4233 4.49963 12.7355 6.22286 13.3354 9.00749L9.93586 9.90657C9.53591 8.50801 8.46104 7.68386 7.2112 7.68386C5.06147 7.68386 4.1116 9.38211 4.1116 11.6423C4.1116 13.9899 5.16146 15.5882 7.2112 15.5882C8.73601 15.5882 9.46091 14.864 9.86086 13.5653L13.3354 14.2896C12.5605 17.1616 10.3358 18.7724 7.19871 18.7724C2.98674 18.76 0.487061 15.6756 0.487061 11.6298Z" fill="#101111"/>
</svg>
