<svg width="33" height="32" viewBox="0 0 33 32" fill="none" xmlns="http://www.w3.org/2000/svg">
<path d="M24.8024 12.8H18.3966V19.2H24.8024V12.8Z" fill="#101111"/>
<path d="M13.5923 12.8H7.18652V19.2H13.5923V12.8Z" fill="#101111"/>
<path d="M28.826 23.96C28.7959 24.71 28.4957 25.6 27.2245 25.6H20.8788C20.3884 25.58 18.0462 25.56 16.2747 27.21C16.1846 27.3 16.0945 27.39 16.0144 27.49C15.9243 27.4 15.8443 27.3 15.7542 27.21C13.9826 25.56 11.6405 25.57 11.15 25.6H4.80433C3.53318 25.6 3.23291 24.71 3.20288 24V19.2H0V24.02C0.020018 25.94 1.32119 28.8 4.80433 28.8H11.1901H11.2902C11.3002 28.8 12.7014 28.74 13.5822 29.57C14.1227 30.08 14.403 30.9 14.403 32H17.6459C17.6459 30.9 17.9161 30.08 18.4666 29.57C19.3374 28.74 20.7387 28.8 20.7387 28.8H27.2345C30.7177 28.8 32.0188 25.94 32.0388 24V19.2H28.836L28.826 23.96Z" fill="#101111"/>
<path d="M3.20288 8.04C3.23291 7.29 3.53318 6.4 4.80433 6.4H11.15C11.6405 6.42 13.9826 6.44 15.7542 4.79C15.8443 4.7 15.9343 4.61 16.0144 4.51C16.1045 4.6 16.1846 4.7 16.2747 4.79C18.0463 6.44 20.3884 6.43 20.8788 6.4H27.2145C28.4857 6.4 28.7859 7.29 28.8159 8V12.8H32.0188V7.98C31.9988 6.06 30.6976 3.2 27.2145 3.2H20.8288H20.7287C20.7187 3.2 19.3174 3.26 18.4366 2.43C17.8961 1.92 17.6259 1.1 17.6259 0H14.383C14.383 1.1 14.1127 1.92 13.5622 2.43C12.6914 3.26 11.2902 3.2 11.2902 3.2H4.80433C1.32119 3.2 0.020018 6.06 0 8V12.8H3.20288V8.04Z" fill="#101111"/>
</svg>
