<svg width="32" height="32" viewBox="0 0 32 32" fill="none" xmlns="http://www.w3.org/2000/svg">
<path d="M16.7126 26.4875L26.8375 16.3625C29.325 13.8625 29.6875 9.77499 27.3375 7.16249C26.7482 6.50413 26.0308 5.97284 25.2292 5.60109C24.4276 5.22935 23.5586 5.02494 22.6753 5.00038C21.792 4.97581 20.913 5.13159 20.092 5.4582C19.2709 5.78482 18.5251 6.2754 17.9001 6.89999L16.0001 8.81249L14.3626 7.16249C11.8626 4.67499 7.77505 4.31249 5.16255 6.66249C4.50419 7.25185 3.9729 7.96925 3.60115 8.77086C3.22941 9.57248 3.02501 10.4415 3.00044 11.3248C2.97587 12.208 3.13165 13.087 3.45827 13.9081C3.78488 14.7291 4.27547 15.4749 4.90005 16.1L15.2876 26.4875C15.4771 26.6753 15.7332 26.7806 16.0001 26.7806C16.2669 26.7806 16.523 26.6753 16.7126 26.4875V26.4875Z" stroke="currentColor" stroke-width="2" stroke-linecap="round" stroke-linejoin="round"/>
</svg>
