<svg width="38" height="24" viewBox="0 0 38 24" fill="none" xmlns="http://www.w3.org/2000/svg">
<path fill-rule="evenodd" clip-rule="evenodd" d="M35 1C36.1 1 37 1.9 37 3V21C37 22.1 36.1 23 35 23H3C1.9 23 1 22.1 1 21V3C1 1.9 1.9 1 3 1H35Z" fill="white"/>
<path fill-rule="evenodd" clip-rule="evenodd" d="M30.0002 11.6499C30.0002 10.1121 29.2426 8.89816 27.7939 8.89816C26.3453 8.89816 25.4597 10.1121 25.4597 11.6381C25.4597 13.4465 26.5004 14.3597 27.9896 14.3597C28.718 14.3597 29.267 14.1975 29.6822 13.9693V12.7676C29.2173 12.9939 28.7039 13.1072 28.1852 13.0981C27.5926 13.0981 27.067 12.8935 26.9999 12.185H29.9882C29.9882 12.1067 30.0002 11.7941 30.0002 11.6499ZM9.54611 10.5244C9.54611 10.2901 9.74176 10.2001 10.0664 10.2001C10.5952 10.211 11.114 10.3425 11.5822 10.5843V9.17696C11.0997 8.99001 10.5851 8.89622 10.0664 8.90072C8.82596 8.90072 8.00122 9.53762 8.00122 10.6012C8.00122 12.2592 10.3235 11.9947 10.3235 12.7098C10.3235 12.9861 10.0789 13.0761 9.73655 13.0761C9.22922 13.0761 8.58139 12.8715 8.06833 12.5958V14.0256C8.59506 14.2497 9.16263 14.3661 9.73655 14.3678C11.0077 14.3678 11.8814 13.7494 11.8814 12.674C11.8757 10.8836 9.54715 11.2017 9.54715 10.529L9.54611 10.5244ZM13.6771 7.69444L12.1863 8.007L12.1801 12.8193C12.1801 13.7089 12.8565 14.3637 13.763 14.3637C14.264 14.3637 14.6309 14.2732 14.8322 14.1653V12.9457C14.6366 13.0234 13.6714 13.3002 13.6714 12.4111V10.2779H14.8322V8.99894H13.6714L13.6771 7.69444ZM16.733 9.44297L16.6352 8.99843H15.3151V14.2553H16.8428V10.6927C17.2034 10.2323 17.8148 10.3142 18.0042 10.3802V8.99894C17.8086 8.92834 17.0936 8.79584 16.733 9.44502V9.44297ZM18.3768 14.2553H19.9108V9.00047H18.3758L18.3768 14.2553ZM18.3768 8.5416L19.9108 8.21726V6.99768L18.3768 7.31589V8.54365V8.5416ZM23.101 8.89611C22.6555 8.89487 22.2268 9.06274 21.9042 9.3647L21.8246 8.99228H20.48V15.9977L22.0083 15.6795L22.014 13.979C22.2341 14.1356 22.5577 14.3576 23.0958 14.3576C24.1885 14.3576 25.186 13.4925 25.186 11.588C25.1797 9.84557 24.1713 8.89611 23.1046 8.89611H23.101ZM22.7341 13.0357C22.3735 13.0357 22.1618 12.9094 22.0129 12.7533L22.0072 10.5244C22.1659 10.35 22.386 10.2298 22.7357 10.2298C23.2919 10.2298 23.677 10.8436 23.677 11.6299C23.6754 12.4372 23.2966 13.0378 22.7341 13.0378V13.0357ZM26.9817 11.0769C26.9817 10.3981 27.4032 10.1157 27.7882 10.1157C28.1608 10.1157 28.5583 10.3981 28.5583 11.0769H26.9817Z" fill="#32325D"/>
</svg>
